# xmcd CD database file
#
# Track frame offsets:
#	150
#	14264
#	34428
#	52496
#	64521
#	78058
#	98919
#	109730
#	127805
#	145981
#	162897
#	174141
#	188511
#	208953
#	232361
#
# Disc length: 3261 seconds
#
# Revision: 0
# Processed by: cddbd v1.5.1PL0 Copyright (c) Steve Scherf et al.
# Submitted via: CDex 1.50
#
DISCID=cd0cbb0f
DTITLE=Olly Wedgwood - Just Friends
DYEAR=2005
DGENRE=Jazz
TTITLE0=Fly me to the moon
TTITLE1=Just the two of us
TTITLE2=Bottled love
TTITLE3=A nightingale sang in Berkley Square
TTITLE4=Rout 77
TTITLE5=Like you
TTITLE6=Alright, okay, you win
TTITLE7=Your song
TTITLE8=I'll remember April
TTITLE9=Happier than the morning sun
TTITLE10=Here and now
TTITLE11=Just friends
TTITLE12=I know
TTITLE13=Mr Bojangles
TTITLE14=Tutti frutti
EXTD=YEAR: 2005
EXTT0=
EXTT1=
EXTT2=
EXTT3=
EXTT4=
EXTT5=
EXTT6=
EXTT7=
EXTT8=
EXTT9=
EXTT10=
EXTT11=
EXTT12=
EXTT13=
EXTT14=
PLAYORDER=
